<svg width="598" height="245" viewBox="0 0 598 245" fill="none" xmlns="http://www.w3.org/2000/svg">
<path d="M84.9299 243.822H75.4414V242.735C76.4422 242.336 77.4657 242.033 78.5158 241.836V219.599C77.3406 219.425 76.3171 219.11 75.4414 218.663V217.575H84.9299V218.663C84.5053 218.886 84.0542 219.076 83.5804 219.224C83.1065 219.375 82.6175 219.5 82.1171 219.599V229.387H93.8915V219.599C93.3645 219.474 92.8717 219.337 92.4092 219.186C91.9467 219.034 91.5032 218.86 91.0786 218.663V217.575H100.567V218.663C100.116 218.913 99.6232 219.106 99.0849 219.243C98.5466 219.379 98.0159 219.5 97.4928 219.599V241.836C98.069 241.935 98.6186 242.06 99.1418 242.211C99.6649 242.363 100.143 242.537 100.567 242.738V243.826H91.0786V242.738C91.9771 242.34 92.9172 242.037 93.8915 241.84V231.339H82.1171V241.84C82.6175 241.938 83.1027 242.064 83.5804 242.215C84.0542 242.367 84.5053 242.541 84.9299 242.742V243.83V243.822Z" fill="#A57E9A" stroke="#A57E9A" stroke-width="0.26915" stroke-miterlimit="10"/>
<path d="M124.306 243.822H114.707V242.735C115.681 242.283 116.682 241.984 117.706 241.836V219.599C117.205 219.5 116.705 219.368 116.205 219.205C115.704 219.042 115.204 218.86 114.703 218.663V217.575H124.302V218.663C123.851 218.864 123.365 219.046 122.839 219.205C122.315 219.368 121.8 219.5 121.299 219.599V241.836C121.823 241.935 122.349 242.06 122.873 242.211C123.396 242.363 123.873 242.537 124.298 242.738V243.826L124.306 243.822Z" fill="#A57E9A" stroke="#A57E9A" stroke-width="0.26915" stroke-miterlimit="10"/>
<path d="M140.015 241.685C140.015 240.934 140.254 240.335 140.728 239.884C141.201 239.433 141.816 239.209 142.566 239.209C143.317 239.209 143.965 239.433 144.443 239.884C144.916 240.335 145.155 240.934 145.155 241.685C145.155 242.435 144.916 242.996 144.443 243.447C143.969 243.898 143.343 244.122 142.566 244.122C141.789 244.122 141.205 243.898 140.728 243.447C140.254 242.996 140.015 242.409 140.015 241.685Z" fill="#A57E9A" stroke="#A57E9A" stroke-width="0.26915" stroke-miterlimit="10"/>
<path d="M166.452 241.836C167.552 241.988 168.628 242.287 169.678 242.735V243.823H160.156V242.735C160.58 242.534 161.02 242.359 161.467 242.208C161.918 242.056 162.381 241.935 162.855 241.832V219.595C162.305 219.47 161.805 219.326 161.354 219.163C160.902 219 160.504 218.833 160.152 218.659V217.571H177.738C177.711 218.545 177.669 219.546 177.605 220.57C177.54 221.593 177.449 222.62 177.324 223.644H176.35L174.811 219.52H166.448V230.168H173.124L174.474 227.806H175.372C175.497 228.932 175.554 230.062 175.539 231.199C175.528 232.336 175.471 233.481 175.372 234.63H174.474L173.124 232.117H166.448V241.829L166.452 241.836Z" fill="#A57E9A" stroke="#A57E9A" stroke-width="0.26915" stroke-miterlimit="10"/>
<path d="M202.109 243.822H192.51V242.735C193.485 242.283 194.485 241.984 195.509 241.836V219.599C195.009 219.5 194.508 219.368 194.008 219.205C193.507 219.042 193.007 218.86 192.507 218.663V217.575H202.105V218.663C201.654 218.864 201.169 219.046 200.642 219.205C200.119 219.368 199.603 219.5 199.103 219.599V241.836C199.626 241.935 200.153 242.06 200.676 242.211C201.199 242.363 201.677 242.537 202.101 242.738V243.826L202.109 243.822Z" fill="#A57E9A" stroke="#A57E9A" stroke-width="0.26915" stroke-miterlimit="10"/>
<path d="M217.147 230.699C217.147 228.75 217.416 226.942 217.954 225.282C218.493 223.621 219.266 222.181 220.278 220.968C221.29 219.755 222.534 218.811 224.008 218.136C225.483 217.461 227.159 217.124 229.031 217.124C230.904 217.124 232.579 217.461 234.054 218.136C235.529 218.811 236.772 219.755 237.784 220.968C238.796 222.181 239.57 223.617 240.108 225.282C240.646 226.946 240.916 228.75 240.916 230.699C240.916 232.647 240.646 234.455 240.108 236.116C239.57 237.78 238.796 239.217 237.784 240.43C236.772 241.643 235.529 242.587 234.054 243.262C232.579 243.936 230.904 244.274 229.031 244.274C227.159 244.274 225.479 243.936 224.008 243.262C222.534 242.587 221.29 241.643 220.278 240.43C219.266 239.217 218.489 237.78 217.954 236.116C217.416 234.455 217.147 232.647 217.147 230.699ZM221.158 230.699C221.158 232.298 221.324 233.807 221.662 235.217C221.999 236.631 222.507 237.86 223.182 238.91C223.857 239.96 224.706 240.79 225.733 241.404C226.757 242.018 227.97 242.321 229.369 242.321C230.642 242.321 231.757 242.014 232.705 241.404C233.656 240.79 234.437 239.96 235.047 238.91C235.661 237.86 236.12 236.628 236.435 235.217C236.746 233.807 236.905 232.298 236.905 230.699C236.905 229.099 236.742 227.594 236.416 226.18C236.09 224.766 235.589 223.538 234.915 222.488C234.24 221.438 233.391 220.607 232.363 219.993C231.336 219.379 230.127 219.076 228.724 219.076C227.322 219.076 226.181 219.383 225.218 219.993C224.255 220.607 223.474 221.438 222.875 222.488C222.276 223.538 221.836 224.77 221.563 226.18C221.287 227.594 221.15 229.099 221.15 230.699H221.158Z" fill="#A57E9A" stroke="#A57E9A" stroke-width="0.26915" stroke-miterlimit="10"/>
<path d="M272.418 217.575H280.519V218.663C279.468 219.364 278.445 219.864 277.444 220.164V244.274H275.306L261.693 223.613L260.23 220.691H260.116L260.454 223.613V241.427C261.477 241.703 262.44 242.139 263.342 242.738V243.826H255.241V242.738C255.692 242.462 256.174 242.219 256.686 242.007C257.197 241.794 257.743 241.601 258.316 241.427V219.94C257.815 219.739 257.322 219.527 256.833 219.303C256.344 219.08 255.889 218.852 255.465 218.629V217.578H261.803L273.615 235.392L275.34 238.618H275.492L275.306 235.392V220.168C274.783 219.944 274.275 219.705 273.786 219.455C273.297 219.205 272.842 218.943 272.418 218.666V217.578V217.575Z" fill="#A57E9A" stroke="#A57E9A" stroke-width="0.26915" stroke-miterlimit="10"/>
<path d="M301.179 243.823H292.854V242.735C293.752 242.337 294.655 242.033 295.553 241.836L305.042 217.124H306.13L315.618 241.836C316.118 241.935 316.611 242.049 317.1 242.174C317.589 242.299 318.044 242.488 318.469 242.735V243.823H308.795V242.735C309.295 242.534 309.807 242.359 310.334 242.208C310.857 242.056 311.372 241.935 311.869 241.832L309.333 234.971H300.421L297.96 241.832C299.01 241.984 300.083 242.284 301.186 242.731V243.819L301.179 243.823ZM301.16 233.022H308.696L305.75 225.073L305.042 221.847H304.966L304.033 225.145L301.16 233.019V233.022Z" fill="#A57E9A" stroke="#A57E9A" stroke-width="0.26915" stroke-miterlimit="10"/>
<path d="M357.462 241.836C358.561 241.988 359.637 242.287 360.688 242.735V243.823H351.165V242.735C351.59 242.534 352.029 242.359 352.477 242.208C352.928 242.056 353.39 241.935 353.864 241.832V219.595C353.314 219.47 352.814 219.326 352.363 219.163C351.912 219 351.514 218.833 351.161 218.659V217.571H368.747C368.72 218.545 368.679 219.546 368.614 220.57C368.55 221.593 368.459 222.62 368.334 223.644H367.359L365.82 219.52H357.458V230.168H364.133L365.483 227.806H366.381C366.506 228.932 366.563 230.062 366.548 231.199C366.537 232.336 366.48 233.481 366.381 234.63H365.483L364.133 232.117H357.458V241.829L357.462 241.836Z" fill="#A57E9A" stroke="#A57E9A" stroke-width="0.26915" stroke-miterlimit="10"/>
<path d="M382.811 217.575H393.084V218.663C392.485 218.886 391.882 219.08 391.283 219.243C390.684 219.406 390.082 219.523 389.483 219.599V241.874H398.107L400.321 235.835H401.295C401.371 236.358 401.439 236.965 401.5 237.655C401.56 238.341 401.613 239.054 401.651 239.793C401.689 240.532 401.708 241.249 401.708 241.95C401.708 242.651 401.697 243.277 401.67 243.826H382.807V242.738C383.406 242.462 383.956 242.264 384.456 242.139C384.956 242.014 385.43 241.916 385.881 241.84V219.603C385.305 219.504 384.755 219.372 384.232 219.209C383.709 219.046 383.231 218.864 382.807 218.666V217.578L382.811 217.575Z" fill="#A57E9A" stroke="#A57E9A" stroke-width="0.26915" stroke-miterlimit="10"/>
<path d="M415.549 230.699C415.549 228.75 415.818 226.942 416.356 225.282C416.894 223.621 417.668 222.181 418.68 220.968C419.692 219.755 420.935 218.811 422.41 218.136C423.885 217.461 425.56 217.124 427.433 217.124C429.306 217.124 430.981 217.461 432.456 218.136C433.93 218.811 435.174 219.755 436.186 220.968C437.198 222.181 437.971 223.617 438.51 225.282C439.048 226.946 439.317 228.75 439.317 230.699C439.317 232.647 439.048 234.455 438.51 236.116C437.971 237.78 437.198 239.217 436.186 240.43C435.174 241.643 433.93 242.587 432.456 243.262C430.981 243.936 429.306 244.274 427.433 244.274C425.56 244.274 423.881 243.936 422.41 243.262C420.935 242.587 419.692 241.643 418.68 240.43C417.668 239.217 416.891 237.78 416.356 236.116C415.818 234.455 415.549 232.647 415.549 230.699ZM419.559 230.699C419.559 232.298 419.726 233.807 420.063 235.217C420.401 236.631 420.909 237.86 421.584 238.91C422.258 239.96 423.108 240.79 424.135 241.404C425.158 242.018 426.371 242.321 427.77 242.321C429.044 242.321 430.159 242.014 431.106 241.404C432.058 240.79 432.839 239.96 433.449 238.91C434.063 237.86 434.522 236.628 434.836 235.217C435.147 233.807 435.306 232.298 435.306 230.699C435.306 229.099 435.143 227.594 434.817 226.18C434.491 224.766 433.991 223.538 433.316 222.488C432.642 221.438 431.792 220.607 430.765 219.993C429.738 219.379 428.528 219.076 427.126 219.076C425.723 219.076 424.582 219.383 423.619 219.993C422.656 220.607 421.875 221.438 421.277 222.488C420.678 223.538 420.238 224.77 419.965 226.18C419.688 227.594 419.552 229.099 419.552 230.699H419.559Z" fill="#A57E9A" stroke="#A57E9A" stroke-width="0.26915" stroke-miterlimit="10"/>
<path d="M481.206 219.599C480.679 219.523 480.156 219.406 479.629 219.243C479.106 219.08 478.552 218.886 477.98 218.663V217.575H486.381V218.663C485.531 219.038 484.629 219.349 483.681 219.599L477.419 243.823L475.095 244.274L469.056 223.875L463.131 243.823L460.845 244.274L454.208 219.599C453.707 219.474 453.218 219.338 452.744 219.186C452.27 219.034 451.808 218.86 451.357 218.663V217.575H461.107V218.663C460.633 218.837 460.144 219.008 459.644 219.167C459.143 219.33 458.605 219.474 458.033 219.599L461.744 234.709L462.57 239.584H462.646L463.958 234.634L469.018 217.571H470.292L475.728 234.634L476.816 239.509H476.892L477.756 234.558L481.206 219.595V219.599Z" fill="#A57E9A" stroke="#A57E9A" stroke-width="0.26915" stroke-miterlimit="10"/>
<path d="M516.491 217.575C516.464 218.575 516.423 219.58 516.358 220.592C516.294 221.604 516.203 222.624 516.078 223.648H515.104L513.564 219.523H505.391V229.459H511.502L512.966 226.684H513.902C514.053 229.16 514.053 231.684 513.902 234.258H512.966L511.502 231.407H505.391V241.87H514.016L515.854 237.37H516.79C516.965 238.421 517.09 239.482 517.166 240.559C517.242 241.635 517.253 242.719 517.204 243.822H498.716V242.735C499.591 242.336 500.615 242.033 501.79 241.836V219.599C501.29 219.5 500.778 219.368 500.251 219.205C499.728 219.042 499.212 218.86 498.712 218.663V217.575H516.487H516.491Z" fill="#A57E9A" stroke="#A57E9A" stroke-width="0.26915" stroke-miterlimit="10"/>
<path d="M538.463 241.836C539.039 241.961 539.589 242.094 540.112 242.231C540.635 242.367 541.151 242.538 541.651 242.739V243.827H531.787V242.739C532.337 242.488 532.86 242.303 533.364 242.178C533.865 242.052 534.365 241.939 534.865 241.84V219.603C534.217 219.478 533.641 219.334 533.14 219.171C532.64 219.008 532.189 218.841 531.791 218.667V217.579H535.093C536.094 217.579 537.189 217.529 538.379 217.427C539.57 217.329 540.73 217.275 541.856 217.275C543.084 217.275 544.229 217.412 545.294 217.689C546.359 217.965 547.28 218.401 548.057 219C548.835 219.599 549.441 220.365 549.881 221.286C550.321 222.211 550.54 223.326 550.54 224.622C550.54 226.446 550.059 227.958 549.092 229.16C548.126 230.361 546.818 231.222 545.161 231.749C546.234 233.451 547.36 235.138 548.535 236.81C549.71 238.485 550.935 240.146 552.208 241.798L554.252 242.886V243.823H549.688L548.262 242.773C547.561 241.897 546.924 241.04 546.352 240.202C545.775 239.365 545.241 238.516 544.74 237.651C544.24 236.787 543.77 235.915 543.334 235.028C542.898 234.141 542.455 233.197 542.003 232.196H538.467V241.833L538.463 241.836ZM541.014 219.224C540.415 219.224 539.918 219.235 539.532 219.262C539.145 219.288 538.789 219.338 538.463 219.41V230.547H541.162C542.887 230.547 544.255 230.001 545.267 228.91C546.28 227.818 546.788 226.377 546.788 224.588C546.788 222.799 546.249 221.396 545.176 220.528C544.1 219.66 542.712 219.224 541.014 219.224Z" fill="#A57E9A" stroke="#A57E9A" stroke-width="0.26915" stroke-miterlimit="10"/>
<path d="M110.374 192.116C105.537 192.116 101.981 190.796 99.7106 188.158C97.4361 185.52 96.3026 181.926 96.3026 177.384C96.3026 172.843 97.0722 168.226 98.6113 163.093C100.15 157.964 102.019 152.907 104.218 147.922C106.417 142.941 108.467 138.543 110.374 134.73H96.9622C89.7786 134.73 82.1211 134.51 73.9859 134.07C65.8508 133.63 57.7156 132.751 49.5805 131.432C41.4453 130.113 33.7499 128.244 26.4942 125.825C19.2385 123.407 12.8244 120.218 7.25568 116.261C5.49673 114.942 3.84771 113.368 2.30862 111.534C0.76954 109.703 0 107.614 0 105.267C0 98.2315 2.67254 92.4429 8.02522 87.8977C13.3741 83.3563 20.5919 79.8384 29.6823 77.344C38.769 74.8534 49.0308 73.0944 60.464 72.0671C71.8972 71.0436 83.7701 70.528 96.0828 70.528C104.73 70.528 113.414 70.8237 122.137 71.4075C130.856 71.9951 139.541 72.6547 148.192 73.3863C150.83 70.1641 153.173 67.6356 155.228 65.8009C157.278 63.9699 159.659 62.6507 162.373 61.8432C165.084 61.0396 168.564 60.6339 172.817 60.6339C173.988 60.6339 175.126 60.7818 176.225 61.0737C177.324 61.3694 177.946 62.173 178.094 63.4922C176.187 65.399 174.428 67.3399 172.817 69.3188C171.202 71.2976 169.519 73.3143 167.76 75.3652C174.356 75.8049 180.547 76.1347 186.339 76.3546C192.128 76.5744 198.322 76.6844 204.918 76.6844C208.14 76.6844 211.988 76.5744 216.461 76.3546C220.93 76.1347 224.778 75.441 228.004 74.2658C229.467 73.682 230.787 73.3863 231.962 73.3863C232.841 73.3863 233.645 73.6441 234.38 74.1559C235.112 74.6714 235.552 75.585 235.7 76.9042C235.844 78.2235 234.562 79.2887 231.852 80.0924C229.138 80.8998 225.805 81.4495 221.848 81.7414C217.89 82.0371 214.115 82.219 210.525 82.291C206.931 82.3669 204.33 82.401 202.719 82.401C195.827 82.401 189.269 82.3289 183.041 82.1811C176.809 82.037 170.179 81.6693 163.143 81.0818C161.384 82.5488 158.855 85.1152 155.557 88.7772C152.259 92.4429 148.741 96.6204 145.004 101.31C141.266 106.003 137.71 110.73 134.34 115.491C130.966 120.256 128.184 124.472 125.985 128.134C135.511 127.55 145.038 126.815 154.568 125.935C164.094 125.056 173.697 124.032 183.371 122.857H183.591C184.47 122.857 185.532 123.153 186.779 123.736C188.022 124.324 188.208 124.911 187.328 125.495C185.861 126.375 183.735 127.144 180.952 127.804C178.166 128.464 175.38 128.979 172.597 129.343C169.811 129.711 167.684 130.041 166.221 130.332C159.917 131.212 153.029 132.019 145.553 132.751C138.078 133.486 130.526 133.998 122.907 134.29C120.852 138.104 118.544 142.645 115.981 147.922C113.415 153.199 111.178 158.514 109.275 163.862C107.368 169.215 106.417 174.086 106.417 178.484C106.417 181.27 107 183.283 108.176 184.53C109.347 185.774 110.814 186.399 112.573 186.399C114.476 186.399 116.493 185.883 118.619 184.86C120.742 183.833 122.611 182.661 124.226 181.342C124.518 181.05 124.958 180.902 125.545 180.902C125.985 180.902 126.315 181.122 126.535 181.562C126.754 182.002 126.645 182.585 126.205 183.321C125.325 184.932 123.858 186.399 121.807 187.718C119.753 189.037 117.63 190.099 115.431 190.906C113.233 191.71 111.546 192.116 110.374 192.116ZM108.615 128.797L113.013 128.577C115.651 123.596 118.839 118.133 122.577 112.197C126.315 106.261 130.162 100.4 134.12 94.6075C138.078 88.8189 141.668 83.6519 144.894 79.1067C131.262 78.2272 117.554 77.7875 103.778 77.7875C100.844 77.7875 96.6665 77.8974 91.2456 78.1173C85.8209 78.3372 79.7745 78.8148 73.1064 79.5465C66.4346 80.2819 59.6944 81.2713 52.8785 82.5147C46.0626 83.7619 39.8304 85.4488 34.1896 87.5717C28.5451 89.6983 23.9657 92.2989 20.4478 95.377C16.9299 98.4552 15.171 102.121 15.171 106.37C15.171 109.744 17.074 112.637 20.8876 115.055C24.6974 117.474 29.7543 119.529 36.0585 121.212C42.3589 122.899 49.1407 124.256 56.3964 125.279C63.6521 126.307 70.7978 127.076 77.8336 127.588C84.8694 128.103 91.1357 128.433 96.6324 128.577C102.129 128.725 106.121 128.797 108.615 128.797Z" fill="#A57E9A"/>
<path d="M279.002 184.2C275.629 184.2 272.956 183.355 270.977 181.672C268.998 179.989 268.009 177.384 268.009 173.867C268.009 168.298 269.438 162.983 272.296 157.926C275.155 152.869 278.195 148.29 281.421 144.184C281.273 143.453 281.163 142.683 281.091 141.876C281.015 141.072 280.981 140.302 280.981 139.567C280.981 135.317 282.115 131.36 284.389 127.694C286.66 124.032 289.666 121.064 293.404 118.789C297.142 116.519 301.061 115.381 305.167 115.381C310.296 115.381 314.144 116.811 316.71 119.669C319.273 122.527 320.558 126.523 320.558 131.652C320.558 137.076 319.273 142.611 316.71 148.252C314.144 153.896 311.467 158.991 308.685 163.533C309.416 163.972 310.554 164.412 312.093 164.852C313.632 165.292 314.985 165.512 316.16 165.512C321.289 165.512 325.725 164.598 329.462 162.763C333.2 160.932 337.632 157.672 342.764 152.979C343.496 152.247 344.084 151.88 344.523 151.88C345.107 151.88 345.403 152.395 345.403 153.419C345.403 154.594 344.887 155.765 343.864 156.937C340.638 160.894 336.388 164.12 331.111 166.611C325.835 169.105 320.702 170.349 315.721 170.349C313.962 170.349 312.203 170.205 310.444 169.909C308.685 169.617 306.998 169.177 305.387 168.59C302.161 172.695 298.351 176.323 293.954 179.473C289.556 182.623 284.571 184.2 279.002 184.2ZM284.279 177.824C285.743 177.824 287.577 177.055 289.776 175.516C291.975 173.977 294.064 172.255 296.042 170.349C298.021 168.446 299.45 166.907 300.33 165.731C298.275 164.56 295.822 162.653 292.964 160.015C290.106 157.376 287.869 155.106 286.258 153.199C285.379 154.226 284.423 155.947 283.4 158.366C282.373 160.784 281.493 163.313 280.761 165.951C280.026 168.59 279.662 170.788 279.662 172.547C279.662 176.065 281.201 177.824 284.279 177.824ZM302.748 160.678C304.507 157.16 306.046 153.131 307.366 148.585C308.685 144.044 309.488 139.427 309.784 134.734C310.076 132.243 309.526 129.677 308.135 127.038C306.74 124.4 304.359 123.081 300.989 123.081C297.619 123.081 295.087 124.256 292.964 126.599C290.838 128.945 289.556 132.023 289.116 135.833C290.14 135.101 291.497 134.442 293.184 133.854C294.867 133.27 296.296 132.975 297.471 132.975C299.374 132.975 300.914 133.452 302.089 134.404C303.26 135.359 303.848 136.421 303.848 137.592C303.848 139.059 302.892 140.086 300.989 140.67C299.23 141.258 297.362 142.357 295.383 143.968C293.404 145.583 291.975 147.046 291.095 148.366C292.267 150.712 293.954 152.983 296.152 155.181C298.351 157.38 300.55 159.215 302.748 160.678Z" fill="#A57E9A"/>
<path d="M341.002 188.378C335.285 188.378 332.427 185.444 332.427 179.583C332.427 175.625 333.45 170.936 335.505 165.511C337.556 160.091 340.304 154.776 343.75 149.571C347.192 144.37 351.078 140.045 355.403 136.599C359.725 133.157 364.088 131.432 368.485 131.432C369.509 131.432 370.536 131.618 371.563 131.981C372.587 132.349 373.102 133.119 373.102 134.29C372.955 134.586 372.773 134.916 372.553 135.279C372.333 135.647 372.075 135.977 371.783 136.269C369.729 138.176 367.166 140.666 364.088 143.744C361.01 146.823 357.894 150.306 354.743 154.188C351.589 158.074 348.989 162.069 346.938 166.171C346.498 167.051 345.691 168.737 344.52 171.228C343.344 173.722 342.761 175.993 342.761 178.044C342.761 179.951 343.712 180.902 345.619 180.902C346.498 180.902 347.67 180.682 349.137 180.243C356.173 177.604 362.219 173.794 367.276 168.81C372.333 163.828 376.692 158.624 380.358 153.199C384.02 147.778 387.174 143.305 389.813 139.787C391.132 139.203 392.671 138.907 394.43 138.907C395.893 138.907 397.25 139.237 398.497 139.897C399.741 140.556 400.366 141.766 400.366 143.525C397.728 146.751 395.309 150.746 393.111 155.507C390.912 160.273 389.813 165.072 389.813 169.909C389.813 174.454 392.011 176.725 396.409 176.725C399.339 176.725 402.125 175.334 404.764 172.547C407.402 169.765 409.745 166.577 411.799 162.983C413.85 159.393 415.317 156.497 416.197 154.298C415.757 153.127 415.06 151.11 414.108 148.252C413.153 145.393 412.239 142.535 411.36 139.677C410.48 136.819 410.041 134.95 410.041 134.07C410.041 132.459 410.514 131.288 411.47 130.552C412.421 129.821 413.63 129.453 415.097 129.453C418.468 129.453 421.178 130.848 423.233 133.63C425.283 136.417 426.311 139.347 426.311 142.425C426.311 143.892 426.125 145.359 425.761 146.823C425.393 148.29 424.844 149.681 424.112 151C424.844 153.639 425.833 156.353 427.08 159.135C428.324 161.922 430.488 163.313 433.566 163.313C437.816 163.313 441.262 162.361 443.9 160.455C446.539 158.552 449.689 155.693 453.355 151.88C453.499 151.736 453.794 151.66 454.234 151.66C455.553 151.66 456.213 152.247 456.213 153.419C456.213 154.006 455.917 154.666 455.334 155.398C452.695 158.332 449.579 161.334 445.989 164.412C442.395 167.49 438.328 169.029 433.786 169.029C427.334 169.029 422.353 166.247 418.835 160.674C417.516 163.9 415.647 167.126 413.229 170.349C410.81 173.575 408.024 176.251 404.874 178.374C401.72 180.5 398.24 181.562 394.43 181.562C389.737 181.562 385.999 180.281 383.216 177.714C380.43 175.152 379.039 170.129 379.039 162.653C377.132 164.56 374.604 166.941 371.453 169.799C368.3 172.657 364.892 175.516 361.23 178.374C357.564 181.232 353.974 183.613 350.456 185.52C346.938 187.423 343.784 188.378 341.002 188.378Z" fill="#A57E9A"/>
<path d="M471.38 182.881C464.928 182.881 459.287 181.342 454.45 178.264C449.613 175.186 447.195 170.057 447.195 162.873C447.195 158.476 448.404 153.896 450.822 149.131C453.241 144.37 456.429 139.935 460.387 135.829C464.344 131.728 468.632 128.392 473.249 125.825C477.866 123.263 482.446 121.978 486.991 121.978C489.334 121.978 491.312 122.603 492.927 123.846C494.538 125.094 495.346 126.962 495.346 129.453C495.346 132.387 494.061 135.39 491.498 138.468C488.932 141.546 485.782 144.442 482.044 147.153C478.306 149.867 474.53 152.209 470.721 154.188C466.907 156.167 463.757 157.596 461.266 158.476C460.826 160.235 460.607 162.069 460.607 163.972C460.607 167.346 461.52 170.349 463.355 172.987C465.186 175.626 468.374 176.945 472.919 176.945C477.464 176.945 481.604 176.031 485.342 174.196C489.08 172.365 492.488 170.095 495.566 167.38C498.644 164.67 501.426 162.069 503.921 159.575C505.972 157.524 507.659 155.803 508.978 154.408C510.297 153.017 511.468 151.808 512.496 150.78C512.935 150.341 513.595 150.121 514.474 150.121C515.206 150.121 515.794 150.379 516.233 150.89C516.673 151.406 516.525 152.028 515.794 152.759C515.206 153.495 514.217 154.556 512.825 155.947C511.434 157.339 510.111 158.734 508.868 160.125C507.621 161.52 506.703 162.509 506.119 163.093C499.667 169.985 493.511 175.004 487.65 178.154C481.786 181.308 476.361 182.881 471.38 182.881ZM461.926 154.082C463.389 153.79 465.478 152.873 468.192 151.334C470.902 149.795 473.579 148.002 476.217 145.947C477.389 144.923 479 143.384 481.054 141.33C483.109 139.275 484.496 137.52 485.232 136.053C486.255 134.15 486.771 132.611 486.771 131.436C486.771 129.677 485.816 128.797 483.913 128.797C482.885 128.797 481.786 129.017 480.615 129.457C479.148 130.044 477.389 131.511 475.338 133.854C473.283 136.201 471.672 138.032 470.501 139.351C468.742 141.55 467.093 143.934 465.554 146.497C464.015 149.063 462.805 151.592 461.926 154.082Z" fill="#A57E9A"/>
<path d="M551.844 185.08C546.712 185.08 542.39 183.905 538.872 181.562C535.354 179.219 533.595 175.262 533.595 169.689C533.595 166.171 534.987 161.482 537.773 155.618C540.555 149.757 544.001 144.332 548.107 139.347C547.371 139.495 546.458 139.605 545.358 139.677C544.259 139.753 543.05 139.787 541.73 139.787C539.532 139.787 537.333 139.457 535.134 138.798C532.936 138.138 531.469 136.857 530.737 134.95C530.149 135.685 528.682 137.516 526.34 140.447C523.993 143.381 521.317 146.569 518.314 150.011C515.308 153.457 512.56 156.425 510.069 158.916C507.575 161.41 505.892 162.653 505.012 162.653C504.717 162.653 504.353 162.509 503.913 162.214C503.473 161.922 503.253 161.554 503.253 161.114C503.253 160.383 504.023 159.283 505.562 157.816C507.101 156.353 508.235 155.254 508.97 154.518C514.539 148.51 518.678 143.563 521.393 139.677C524.103 135.795 525.972 132.899 526.999 130.992C526.12 129.673 525.68 127.622 525.68 124.836C525.68 121.758 526.154 118.498 527.109 115.052C528.061 111.61 529.38 108.641 531.067 106.147C532.75 103.656 534.695 102.409 536.893 102.409C539.384 102.409 541.435 103.728 543.05 106.367C544.661 109.005 545.468 111.424 545.468 113.623C545.468 115.381 544.809 117.288 543.489 119.339C542.17 121.394 540.665 123.373 538.982 125.276C537.295 127.182 535.866 128.721 534.695 129.893C536.014 133.411 538.577 135.17 542.39 135.17C545.029 135.17 547.227 134.438 548.986 132.971C550.745 131.508 552.356 130.079 553.823 128.684C555.287 127.292 556.826 126.595 558.441 126.595C560.491 126.595 562.322 127.292 563.937 128.684C565.548 130.079 566.28 131.8 566.136 133.851C563.642 136.489 560.893 140.045 557.891 144.514C554.885 148.987 552.356 153.605 550.305 158.366C548.251 163.131 547.227 167.418 547.227 171.228C547.227 174.015 548.069 175.921 549.756 176.945C551.439 177.972 553.675 178.484 556.462 178.484C559.1 178.484 561.883 177.752 564.817 176.285C567.747 174.822 570.677 173.063 573.612 171.008C575.515 169.689 578.339 167.271 582.076 163.753C585.814 160.235 590.174 155.765 595.159 150.341C595.451 150.049 595.742 149.901 596.038 149.901C597.21 149.901 597.797 150.708 597.797 152.319C597.797 152.759 596.918 153.969 595.159 155.947C593.4 157.926 591.311 160.163 588.892 162.653C586.474 165.148 584.165 167.456 581.967 169.579C579.768 171.706 578.153 173.135 577.129 173.867C573.464 176.653 569.544 179.219 565.366 181.562C561.189 183.905 556.682 185.08 551.844 185.08Z" fill="#A57E9A"/>
<path d="M247.678 123.085C244.581 126.993 232.898 140.727 229.861 144.692C233.504 134.798 237.413 121.841 241.882 112.258C236.101 120.124 231.727 128.854 227.64 137.732C227.625 137.672 227.606 137.611 227.591 137.547C228.736 121.087 227.003 104.305 221.442 88.7812C223.004 100.26 223.694 111.879 223.36 123.448C222.727 121.674 222.041 119.919 221.279 118.194C220.479 116.401 219.475 114.601 218.364 112.974C216.783 110.723 214.782 108.748 212.666 107.015C215.013 109.566 217.045 112.421 218.288 115.662C219.285 118.134 219.948 120.742 220.491 123.35C222.083 131.011 222.818 139.196 221.503 147.043C220.896 150.663 220.001 155.038 217.852 158.047C215.38 161.512 212.427 164.803 209.721 168.105C201.407 178.021 191.263 187.131 178.583 190.759C178.154 190.869 176.801 191.24 176.403 191.335L175.668 191.494C173.715 191.957 171.725 192.218 169.735 192.453C169.561 192.472 169.42 192.612 169.405 192.794C169.39 192.999 169.542 193.181 169.746 193.196C198.959 195.277 218.572 171.236 235.172 151.137C247.163 136.618 259.813 119.294 269.806 105.87C280.299 91.7759 288.449 73.7126 301.194 61.5364C276.114 78.5269 266.269 99.6381 247.682 123.081L247.678 123.085Z" fill="#A57E9A"/>
<path d="M274.847 89.7591C276.072 76.567 276.713 63.5985 275.287 50.3987C281.083 61.6538 280.39 78.5117 274.847 89.7591Z" fill="#A57E9A" stroke="#A57E9A" stroke-width="0.379084" stroke-miterlimit="10"/>
<path d="M275.663 89.5999C275.355 90.0131 275.086 90.4112 274.995 90.7372C276.148 86.499 276.948 82.1547 278.43 78.0113C279.893 73.921 282.676 70.676 285.541 67.45C286.99 65.82 288.563 64.1141 290.667 63.5493C289.871 63.7615 288.68 65.82 288.206 66.472C287.354 67.6471 286.622 68.8868 285.958 70.1718C284.707 72.598 283.297 74.8952 282.111 77.401C280.924 79.903 279.73 82.4049 278.434 84.8538C277.873 85.9152 277.285 86.9615 276.766 88.0343C276.542 88.4892 276.068 89.0578 275.663 89.5999Z" fill="#A57E9A" stroke="#A57E9A" stroke-width="0.379084" stroke-miterlimit="10"/>
<path d="M249.718 36.0959C250.472 40.6222 253.774 45.7739 255.556 50.0235C257.447 54.5384 259.555 58.8599 261.651 63.2801C266.045 72.5411 270.408 81.9158 276.561 90.1723L274.04 92.0753C268.02 83.4511 266.811 67.503 268.005 57.2564C268.498 53.3859 269.301 49.398 271.326 46.0203C267.755 55.0729 269.639 70.7784 272.171 80.0925C273.168 83.6142 274.438 87.2989 276.587 90.2026C277.789 91.8934 275.378 93.7395 274.063 92.1019C274.051 92.1094 271.746 88.8796 271.735 88.8758L269.589 85.574L267.603 82.185L265.749 78.7315C258.622 65.4674 252.519 50.9408 249.725 36.0997L249.718 36.0959Z" fill="#A57E9A" stroke="#A57E9A" stroke-width="0.379084" stroke-miterlimit="10"/>
<path d="M273.82 88.5233C280.837 94.7137 290.235 95.2482 299.026 96.4348C308.055 97.5758 316.949 98.1369 326.054 97.0224C315.269 101.56 303.044 100.601 291.789 98.5538C285.049 97.265 277.611 94.6341 273.816 88.5233H273.82Z" fill="#A57E9A" stroke="#A57E9A" stroke-width="0.379084" stroke-miterlimit="10"/>
<path d="M272.652 88.5233C292.698 105.256 319.325 107.205 343.75 113.069C340.539 112.974 337.347 112.732 334.151 112.5C312.199 110.76 287.49 106.348 272.649 88.5233H272.652Z" fill="#A57E9A" stroke="#A57E9A" stroke-width="0.379084" stroke-miterlimit="10"/>
<path d="M272.312 89.8955C284.366 95.0018 295.314 107.568 295.614 120.662C295.443 113.224 290.292 108.914 286.345 103.747C282.448 98.5462 276.986 94.4976 272.312 89.8917V89.8955Z" fill="#A57E9A" stroke="#A57E9A" stroke-width="0.379084" stroke-miterlimit="10"/>
<path d="M273.551 89.6756C273.293 90.775 266.037 91.4004 265.473 91.3966C262.364 91.3777 259.271 91.0441 256.337 89.9523C250.347 87.7271 246.173 82.8673 244.964 76.5782C248.963 86.0364 261.716 90.5551 270.78 85.7256C271.682 86.9576 272.584 88.1934 273.486 89.4254C273.551 89.5126 273.57 89.596 273.551 89.6756Z" fill="#A57E9A" stroke="#A57E9A" stroke-width="0.379084" stroke-miterlimit="10"/>
<path d="M243.853 54.6102C243.744 53.4313 243.69 52.2523 243.694 51.081C243.634 66.9873 257.622 83.0302 272.747 86.3813C273.221 87.4086 273.691 88.436 274.165 89.4633C257.353 85.536 245.575 72.3021 243.853 54.6102Z" fill="#A57E9A" stroke="#A57E9A" stroke-width="0.379084" stroke-miterlimit="10"/>
<path d="M272.023 89.5849C274.347 90.3658 276.322 92.102 277.77 94.1377C282.073 100.286 281.823 108.615 279.006 115.306C278.638 112.899 278.54 110.563 278.343 108.285C277.88 101.507 276.504 94.9603 272.027 89.5849H272.023Z" fill="#A57E9A" stroke="#A57E9A" stroke-width="0.379084" stroke-miterlimit="10"/>
<path d="M309.39 70.0731C301.872 82.4578 288.639 96.5294 272.755 90.7029L273.85 87.7119C281.618 90.4679 290.136 90.7636 298.313 89.8083C302.464 89.3079 306.581 88.4398 310.588 87.2191C314.613 86.0061 318.533 84.4025 322.297 82.382C318.95 85.0508 315.129 87.1243 311.152 88.7923C301.103 92.8826 289.878 94.4748 279.142 92.4694C276.978 92.06 274.836 91.4725 272.751 90.7029C271.917 90.4034 271.485 89.4823 271.792 88.6521C272.095 87.8219 273.02 87.4011 273.847 87.7119C288.377 93.1291 300.637 80.0089 309.386 70.0731H309.39Z" fill="#A57E9A" stroke="#A57E9A" stroke-width="0.379084" stroke-miterlimit="10"/>
<path d="M275.287 90.7219C270.924 84.3268 267.937 76.8929 266.2 69.3302C265.62 66.7865 265.147 64.2126 264.828 61.6272C263.657 52.5519 263.285 42.9725 259.843 34.481C258.941 32.2557 255.552 32.5931 254.464 29.9206C253.683 28.0327 255.271 25.9743 257.11 25.6218C260.859 24.7537 262.895 29.3178 260.924 32.142C260.173 33.3134 258.221 33.5825 257.77 31.9904C257.451 30.5726 259.153 29.3861 260.162 30.6029L258.3 31.7705C257.724 30.5802 258.266 29.1889 259.066 28.3549C260.454 26.9448 262.338 25.9819 264.332 26.251C266.36 26.6339 267.698 28.8061 267.376 30.7849C267.031 32.8812 264.275 33.954 262.429 33.8858C262.762 36.6228 264.301 39.5683 264.995 42.3053C266.572 48.5374 267.084 54.9364 267.633 61.3239C267.903 64.459 268.297 67.6357 268.892 70.729C270.181 77.6246 272.315 84.304 275.295 90.7143L275.287 90.7219Z" fill="#A57E9A" stroke="#A57E9A" stroke-width="0.379084" stroke-miterlimit="10"/>
<path d="M278.005 78.7317C280.659 67.7382 282.175 55.9866 288.221 44.8263C290.97 39.7542 294.783 34.682 299.166 30.8988C295.682 36.2401 292.27 41.6648 289.707 47.5141C287.05 53.5225 285.018 59.8912 283.13 66.1043C282.528 68.0945 281.91 70.0771 281.227 72.0408C280.7 73.5571 280.101 76.7111 278.938 77.8332L278.005 78.7317Z" fill="#A57E9A" stroke="#A57E9A" stroke-width="0.379084" stroke-miterlimit="10"/>
<path d="M293.461 62.1771C293.442 62.1657 293.423 62.1544 293.4 62.1392C294.01 61.4455 294.537 59.0686 292.809 59.7472C291.724 60.1718 292.176 61.7222 292.82 62.287C291.27 63.9019 288.809 61.8056 288.282 60.2097C287.422 57.6129 289.583 54.9404 292.191 54.6713C294.776 54.2694 297.547 56.2899 297.384 59.0231C297.316 60.7783 295.356 63.322 293.464 62.1809L293.461 62.1771Z" fill="#A57E9A" stroke="#A57E9A" stroke-width="0.758169" stroke-linecap="round" stroke-linejoin="round"/>
<path d="M308.526 69.3913C308.514 69.289 308.526 69.179 308.56 69.0729C308.658 68.7545 309.651 68.9326 309.788 68.0645C309.883 67.4732 309.477 66.7681 308.908 66.5785C307.434 66.0857 307.138 67.8939 306.839 68.7583C305.209 68.5232 304.818 65.7825 305.212 64.4784C306.012 61.8134 309.42 60.9529 311.668 62.3707C313.992 63.6634 314.864 67.0751 312.904 69.0539C312.263 69.7287 311.244 70.1874 310.319 70.2708C309.238 70.3656 308.59 69.9372 308.529 69.3951L308.526 69.3913Z" fill="#A57E9A" stroke="#A57E9A" stroke-width="0.758169" stroke-linecap="round" stroke-linejoin="round"/>
<path d="M324.811 80.0852C325.16 83.0232 321.828 85.908 318.935 84.4826C316.194 83.2013 315.921 79.0011 318.287 77.2573C320.766 75.3088 324.841 76.9275 324.815 80.0852H324.811ZM319.8 80.6842C319.64 80.7032 319.481 80.7487 319.322 80.8283C318.401 81.2794 318.37 82.0299 318.776 82.5455C319.132 82.9966 319.822 83.2658 320.543 82.9966C322.256 82.356 321.157 80.5136 319.8 80.6804V80.6842Z" fill="#A57E9A" stroke="#A57E9A" stroke-width="0.758169" stroke-linecap="round" stroke-linejoin="round"/>
<path d="M324.242 97.6481C324.147 97.5951 324.178 97.4699 324.216 97.3903C324.534 96.78 325 96.291 325.383 95.7072C326.145 94.6192 326.843 93.4175 327.889 92.5456C330.74 90.1688 334.459 92.5911 333.962 96.1545C333.712 98.8536 331.27 100.097 328.894 99.4147C328.014 99.2024 327.21 98.8422 326.403 98.52C325.785 98.2585 324.822 97.9552 324.242 97.6443V97.6481ZM324.303 97.5951C326.168 99.4753 329.944 95.9764 326.718 95.8626C325.55 95.8209 324.769 96.4919 324.201 97.4851C324.235 97.523 324.265 97.5571 324.299 97.5913L324.303 97.5951Z" fill="#A57E9A" stroke="#A57E9A" stroke-width="0.758169" stroke-linecap="round" stroke-linejoin="round"/>
<path d="M326.881 80.4223C326.57 80.3085 326.183 80.2972 325.96 80.3464C325.861 78.7088 327.624 77.3213 329.159 77.2228C332.286 77.0219 333.238 80.354 332.082 82.7802C330.687 85.7105 325.023 86.0403 325.891 81.9424C326.414 81.9765 327.15 81.7756 327.336 81.2145C327.476 80.79 327.222 80.5436 326.881 80.4223Z" fill="#A57E9A" stroke="#A57E9A" stroke-width="0.758169" stroke-linecap="round" stroke-linejoin="round"/>
<path d="M313.226 66.2033C312.82 63.8908 316.047 60.9036 318.886 62.0219C321.782 63.1592 321.926 67.2988 319.564 69.0578C317.051 71.0176 313.503 69.2473 313.226 66.2033ZM313.476 66.3663C313.029 67.0524 313.162 67.7916 314.959 67.5755C315.398 67.5225 315.751 67.204 315.77 66.5255C315.827 64.5732 314.094 65.4186 313.476 66.3701V66.3663Z" fill="#A57E9A" stroke="#A57E9A" stroke-width="0.758169" stroke-linecap="round" stroke-linejoin="round"/>
<path d="M258.824 25.2164C258.513 24.9624 258.27 24.6023 258.183 24.2156C257.44 20.8645 261.864 19.1093 264.317 20.6446C265.772 21.5582 266.678 23.9048 265.708 25.4855C265.306 26.1376 264.946 26.3271 264.229 26.5925C263.562 26.8351 262.107 26.3195 261.834 26.4484C262.736 26.0276 263.297 24.9245 262.997 23.9806C262.698 23.0367 261.474 22.468 260.602 22.9419C259.73 23.4157 259.608 24.879 260.45 25.4097C259.953 25.7661 259.305 25.6144 258.828 25.2202L258.824 25.2164Z" fill="#A57E9A" stroke="#A57E9A" stroke-width="0.758169" stroke-linecap="round" stroke-linejoin="round"/>
<path d="M273.358 42.2071C271.307 41.6536 271.167 38.8522 272.44 37.2941C274.146 35.1182 277.619 35.5541 279.181 37.6846C280.86 39.724 280.428 43.2002 277.895 44.3185C276.209 45.1108 273.434 44.4437 273.358 42.2488C274.021 42.1957 274.226 41.8583 274.537 41.3844C273.813 41.1001 273.301 42.1919 273.358 42.2071Z" fill="#A57E9A" stroke="#A57E9A" stroke-width="0.758169" stroke-linecap="round" stroke-linejoin="round"/>
<path d="M338.371 118.847C337.143 117.095 336.896 114.965 339.038 113.884C340.482 113.175 341.927 112.645 343.682 113.092C346.631 113.846 347.837 117.33 346.195 119.836C344.36 122.637 340.02 121.193 338.371 118.847ZM339.023 118.289C339.683 118.816 340.486 118.869 340.774 117.489C340.911 116.83 340.539 116.409 340.024 116.227C337.241 115.241 337.927 117.417 339.023 118.293V118.289Z" fill="#A57E9A" stroke="#A57E9A" stroke-width="0.758169" stroke-linecap="round" stroke-linejoin="round"/>
<path d="M300.383 56.4718C298.684 51.5362 306.695 48.4883 308.218 54.239C309.826 59.1141 303.161 61.6615 300.762 57.3134C300.603 57.0291 300.478 56.7448 300.383 56.4718Z" fill="#A57E9A" stroke="#A57E9A" stroke-width="0.758169" stroke-linecap="round" stroke-linejoin="round"/>
<path d="M246.534 31.6873C247.209 31.4674 247.895 31.2248 248.425 30.7623C248.956 30.2998 249.335 29.4734 249.077 28.7797C248.668 27.6766 247.065 28.0026 246.28 28.4537C245.537 28.8783 245.135 29.7047 244.779 30.4818C243.766 29.1588 244.043 27.2217 245.116 26.0275C248.369 22.5627 254.449 27.6728 250.491 31.1604C249.407 32.1157 247.739 32.3469 246.435 31.7176C246.466 31.7062 246.496 31.6987 246.526 31.6873H246.534Z" fill="#A57E9A" stroke="#A57E9A" stroke-width="0.758169" stroke-linecap="round" stroke-linejoin="round"/>
<path d="M337.328 111.379C337.355 111.686 337.499 111.978 337.749 112.16C335.251 112.05 335.675 109.081 336.316 107.535C337.271 105.226 340.372 104.278 342.503 105.734C344.239 106.849 344.872 109.309 343.936 111.144C342.45 114.051 340.884 111.834 338.628 112.342C339.273 112.198 339.66 111.379 339.364 110.791C339.068 110.204 338.181 110.022 337.681 110.446C337.415 110.674 337.298 111.034 337.328 111.383V111.379Z" fill="#A57E9A" stroke="#A57E9A" stroke-width="0.758169" stroke-linecap="round" stroke-linejoin="round"/>
<path d="M326.835 77.6323C323.886 75.8696 325.281 70.8884 328.518 70.1416C332.65 69.0764 336.528 73.7846 334.868 77.7157L331.657 74.2926C334.049 73.3259 336.779 74.2661 338.458 76.044C342.086 79.6377 341.093 86.7152 335.801 87.8866C332.51 88.6144 329.273 86.7683 328.45 83.3869C328.621 84.0806 331.214 84.7705 331.858 84.9752C333.071 85.3619 334.455 85.6841 335.592 84.9032C336.013 84.6151 336.343 84.1981 336.582 83.747C337.495 82.0259 337.055 79.6984 335.577 78.4322C334.099 77.1661 331.729 77.0865 330.171 78.254C330.634 76.5292 329.477 71.5177 327.279 74.5731C326.733 75.3275 326.358 76.4231 326.839 77.6323H326.835Z" fill="#A57E9A" stroke="#A57E9A" stroke-width="0.758169" stroke-linecap="round" stroke-linejoin="round"/>
<path d="M306.376 22.7598C305.891 21.3231 304.841 19.9204 303.855 19.0902C302.054 17.5739 299.636 17.1645 297.524 18.298C296.353 18.9273 295.443 20.0114 294.973 21.2397C294.533 21.2586 294.094 21.3306 293.669 21.4671C293.271 21.5733 292.888 21.7476 292.638 22.1154C291.921 23.1275 291.588 24.3216 291.542 25.4323C291.421 28.4157 293.544 31.7214 296.641 31.854C295.326 30.9632 293.813 28.5711 294.981 27.0472C295.701 26.1109 296.796 25.9934 297.706 26.725C297.392 25.0078 298.798 22.7863 300.803 23.5786C302.24 24.1472 302.649 26.3573 301.512 27.4036C303.555 25.5309 308.317 29.807 306.846 32.4416C305.599 34.6744 301.675 35.5274 299.89 33.5258C300.712 37.1006 305.788 37.6692 308.465 35.6866C310.614 34.0944 311.251 31.2513 311.16 28.7228C311.088 26.6719 309.018 23.6506 306.637 24.8523C306.668 24.1434 306.603 23.4497 306.372 22.7674L306.376 22.7598Z" fill="#A57E9A" stroke="#A57E9A" stroke-width="0.758169" stroke-linecap="round" stroke-linejoin="round"/>
<path d="M252.118 25.77C252.819 24.9588 253.221 23.9542 253.016 22.5516C252.584 19.6213 249.862 17.4112 246.886 18.0253C246.049 18.1921 245.271 18.5484 244.597 19.0413C243.384 18.2831 241.913 17.9533 240.419 18.2717C238.111 18.7873 236.518 20.7092 236.082 22.9003C235.965 22.9307 235.847 22.9572 235.73 22.9951C232.83 23.9011 231.829 27.4948 232.925 30.012C234.244 33.3289 238.512 34.978 241.367 33.0977C238.963 33.329 233.599 29.7315 236.617 27.1613C237.322 26.5585 238.448 26.5168 239.199 27.0665C239.32 25.6335 239.828 24.1172 241.03 23.3249C242.227 22.5326 244.202 22.9155 244.612 24.2916C245.503 23.1354 246.632 21.8654 248.088 21.9337C249.544 22.0057 250.617 23.5486 250.541 25.0043C250.465 26.46 249.491 27.7375 248.319 28.598C249.608 27.6503 251.147 26.8921 252.122 25.7662L252.118 25.77Z" fill="#A57E9A" stroke="#A57E9A" stroke-width="0.758169" stroke-linecap="round" stroke-linejoin="round"/>
<path d="M304.333 47.3855C304.367 47.4461 304.412 47.4651 304.412 47.4234C304.318 47.2187 304.075 47.0367 303.779 46.9078C303.931 47.0367 304.094 47.1542 304.276 47.2376C304.287 47.2414 304.299 47.3248 304.337 47.3855H304.333Z" fill="#A57E9A" stroke="#A57E9A" stroke-width="0.758169" stroke-linecap="round" stroke-linejoin="round"/>
<path d="M314.769 50.6226C315.072 49.5915 315.091 48.4732 314.799 47.4118C313.931 44.1934 310.546 42.9727 307.771 43.8332C305.838 42.1198 302.65 41.8468 300.481 43.367C297.005 45.9258 298.173 51.3846 301.395 53.4961C300.44 52.8706 300.758 49.2541 301.103 48.3709C302.145 45.687 304.697 46.9114 305.387 49.0722C305.409 48.0145 306.137 47.01 307.13 46.6536C310.129 45.5808 312.434 50.1905 311.41 52.5332C311.467 52.4043 314.723 54.5954 313.363 56.3316C312.373 57.594 309.682 57.3286 308.696 56.2937C308.825 57.7002 310.246 58.7388 311.611 58.9852C313.253 59.3226 315.144 58.6934 316.092 57.1239C317.4 54.9556 316.592 52.2224 314.773 50.6226H314.769Z" fill="#A57E9A" stroke="#A57E9A" stroke-width="0.758169" stroke-linecap="round" stroke-linejoin="round"/>
<path d="M355.213 115.571C355.577 114.445 355.289 113.054 354.247 112.531C356.051 112.068 356.301 109.881 355.972 108.323C355.759 107.326 355.297 106.094 354.398 105.537C354.144 105.381 351.912 104.745 351.881 105.412C352.003 102.728 348.318 102.61 346.601 103.441C344.633 104.392 343.341 106.522 343.708 108.721C343.227 105.859 350.27 105.298 348.564 109.813C349.671 109.225 351.146 110.203 351.343 111.443C351.593 113.024 350.187 114.491 348.936 115.26C347.734 116.003 346.066 115.893 344.971 114.999C346.017 116.898 347.852 118.346 349.94 118.922C351.84 119.445 354.171 117.645 355.02 116.022C355.096 115.878 355.157 115.727 355.21 115.571H355.213Z" fill="#A57E9A" stroke="#A57E9A" stroke-width="0.758169" stroke-linecap="round" stroke-linejoin="round"/>
<path d="M329.492 39.1326C328.541 37.9802 327.044 37.2637 325.546 37.3699C326.141 34.7239 325.425 31.5055 322.62 30.3075C320.849 29.5532 318.617 30.0801 317.369 31.5472C313.795 31.0392 310.318 32.3243 309.924 36.426C309.462 41.2214 314.905 43.4163 318.173 40.3116C316.452 40.6452 314.674 40.4708 313.654 39.2009C312.839 38.1849 313.082 36.7975 313.908 35.8725C315.66 33.924 316.755 35.5124 317.259 37.2599C317.51 35.4062 319.648 34.0643 321.426 34.6443C323.283 35.2508 323.965 37.4647 323.332 39.1705C324.887 39.4966 326.339 38.8938 327.207 40.6944C329.333 45.1108 322.074 47.7947 319.993 43.3935C320.599 51.396 332.123 47.6431 330.383 40.8499C330.22 40.2168 329.909 39.633 329.496 39.1326H329.492Z" fill="#A57E9A" stroke="#A57E9A" stroke-width="0.758169" stroke-linecap="round" stroke-linejoin="round"/>
<path d="M273.373 10.5267C273.35 10.5039 273.29 10.5456 273.237 10.5949C273.324 10.5797 273.384 10.538 273.373 10.5267Z" fill="#A57E9A" stroke="#A57E9A" stroke-width="0.758169" stroke-linecap="round" stroke-linejoin="round"/>
<path d="M283.157 15.5611C283.267 15.3147 283.369 15.0645 283.441 14.803C284.56 11.0007 281.216 7.84676 277.634 7.96049C276.25 5.68598 273.24 4.53734 270.772 6.10296C270.219 6.44793 269.741 6.89147 269.351 7.39565C268.767 7.32742 268.168 7.36912 267.596 7.5435C263.945 8.62768 263.987 13.3852 266.659 15.436C268.6 16.9448 271.076 16.8083 273.252 16.1639C271.049 15.5763 268.301 14.9318 268.058 12.4071C268.051 12.0622 268.07 11.7172 268.365 11.5618C268.9 12.4261 269.677 13.1122 270.757 13.0933C271.838 13.0743 272.778 12.3427 273.096 11.3533C273.525 10.0151 273.665 9.09396 275.405 9.56024C276.22 9.7801 276.868 10.3866 276.891 11.232C277.585 10.6406 278.76 10.9666 279.245 11.7362C279.882 12.7521 279.317 14.3556 278.055 14.6362C278.873 14.4618 279.571 15.4891 279.317 16.2852C278.983 17.3353 277.998 17.4073 277.042 17.4603C276.481 17.4907 275.92 17.4376 275.374 17.3011C275.12 17.2367 274.074 17.0055 273.976 16.7363C274.305 17.6347 274.434 18.4725 275.17 19.1207C275.81 19.6894 276.614 20.0078 277.456 20.1253C278.983 20.3414 280.765 20.0571 282.054 19.1738C283.134 18.4346 283.832 16.9637 283.267 15.781C283.233 15.7052 283.191 15.6331 283.153 15.5573L283.157 15.5611ZM273.054 10.724C273.054 10.724 273.054 10.7164 273.054 10.7126C273.054 10.7278 273.058 10.7354 273.054 10.724Z" fill="#A57E9A" stroke="#A57E9A" stroke-width="0.758169" stroke-linecap="round" stroke-linejoin="round"/>
<path d="M242.94 12.7862C240.787 13.4003 239.869 10.1743 240.158 8.59354C240.677 5.7504 244.036 4.32126 246.526 5.68217C248.152 6.47825 249.756 8.73381 249.278 10.6179C249.051 11.5125 248.228 12.2934 247.409 12.6611C246.704 12.9871 245.378 12.7218 244.608 12.7711C245.343 12.2896 245.177 10.9552 244.346 10.6671C243.088 10.235 242.534 11.8802 242.94 12.7824V12.7862Z" fill="#A57E9A" stroke="#A57E9A" stroke-width="0.758169" stroke-linecap="round" stroke-linejoin="round"/>
<path d="M288.347 28.7495C288.097 29.3371 287.672 29.8716 287.039 30.3227C285.678 31.2856 283.726 31.5509 282.285 30.6032C279.745 28.9276 279.81 24.8942 282.319 23.1921C284.564 21.7213 287.653 23.177 288.305 25.5955C288.688 26.7176 288.749 27.8056 288.351 28.7495H288.347Z" fill="#A57E9A" stroke="#A57E9A" stroke-width="0.758169" stroke-linecap="round" stroke-linejoin="round"/>
<path d="M307.877 9.68547C307.832 6.66038 305.155 3.44196 304.238 2.58523C302.396 0.344839 299.306 0.686017 297.422 2.32745C295.383 1.86876 293.07 2.50183 291.717 4.29111C289.37 7.41476 291.899 12.0244 294.617 14.026C294.901 14.2383 295.25 14.4278 295.625 14.5719C295.394 17.0663 295.25 19.5644 295.349 22.0777C295.333 21.6797 296.065 20.7737 296.258 20.3984C296.577 19.7767 296.884 19.1474 297.176 18.5144C297.589 17.6235 297.888 15.9859 298.855 15.5651C299.42 15.3187 300.061 15.3338 300.679 15.2959C302.271 15.2011 304.538 15.0344 305.845 14.0487C307.222 13.0138 307.9 11.3762 307.874 9.68168L307.877 9.68547ZM295.803 7.24796C295.803 7.28208 295.781 7.35031 295.788 7.38822C295.785 7.40718 295.781 7.41855 295.773 7.43371C295.773 7.41096 295.769 7.38823 295.766 7.36927C295.766 7.24038 295.803 7.15698 295.8 7.24796H295.803ZM304.158 11.3838C303.264 12.7144 300.724 12.7788 299.333 12.7295C297.638 12.6727 296.338 11.5354 295.671 10.0646C295.356 9.36704 295.205 8.53685 295.538 7.84313C295.883 7.13424 296.672 6.92574 297.384 7.08496C297.233 5.54208 299.155 5.38666 300.311 5.87947C301.255 6.2813 301.789 7.67632 301.023 8.35868C302.214 7.28966 305.277 9.71581 304.155 11.3838H304.158Z" fill="#A57E9A" stroke="#A57E9A" stroke-width="0.758169" stroke-linecap="round" stroke-linejoin="round"/>
<path d="M300.508 6.05762C300.443 5.99318 300.299 5.83777 300.299 5.83777C300.349 5.92496 300.421 5.99697 300.508 6.05762Z" fill="#A57E9A" stroke="#A57E9A" stroke-width="0.758169" stroke-linecap="round" stroke-linejoin="round"/>
<path d="M354.994 89.3613C354.489 88.2847 353.637 87.3635 352.598 86.7873C352.526 86.7456 352.378 86.7039 352.188 86.6584C351.779 84.1413 349.614 81.9009 346.912 82.0753C343.921 82.1852 341.741 86.2187 343.879 88.4439C343.682 87.3332 344.671 85.271 346.013 85.3354C347.31 85.3998 348.102 87.4621 347.438 88.4628C348.022 87.5834 349.906 89.2893 350.24 89.7252C350.953 90.6464 351.358 91.7382 351.07 92.9095C350.718 94.3311 349.379 95.4532 347.916 95.5441C345.539 95.6958 344.774 92.7693 345.479 90.9383C343.378 92.1893 342.943 95.3205 344.383 97.432C346.081 99.8581 349.33 100.992 351.828 99.1189C352.882 98.3304 353.53 96.8634 353.003 95.6579C355.452 94.8012 355.968 91.4349 354.99 89.3575L354.994 89.3613Z" fill="#A57E9A" stroke="#A57E9A" stroke-width="0.758169" stroke-linecap="round" stroke-linejoin="round"/>
<path d="M359.721 89.2174C360.544 87.7351 357.928 86.6017 357.462 88.6525C356.832 86.7761 357.848 84.312 359.668 83.5273C361.321 82.8109 363.86 83.2278 365.282 84.2893C368.065 86.3704 368 91.2872 364.835 93.0537C363.425 93.8422 361.366 93.5465 360.047 92.6708C359.547 92.341 359.084 91.8255 358.705 91.3668C358.193 90.7489 358.14 89.8884 357.742 89.3539C358.208 89.9793 359.323 89.9149 359.713 89.2401C359.717 89.2325 359.721 89.2249 359.725 89.2174H359.721Z" fill="#A57E9A" stroke="#A57E9A" stroke-width="0.758169" stroke-linecap="round" stroke-linejoin="round"/>
<path d="M332.143 108.539C332.533 108.471 332.893 108.293 333.139 107.99C333.818 107.156 333.185 106.045 332.161 106.28C330.96 106.553 331.362 107.845 331.786 108.573C331.786 108.573 330.88 108.38 330.721 108.281C330.349 108.05 330.118 107.701 329.913 107.326C329.383 106.363 329.345 105.021 329.834 104.039C331.24 100.976 335.429 101.124 337.211 103.702C338.352 105.173 338.53 107.588 337.271 109.096L337.499 108.638C336.866 109.976 336.066 110.488 334.607 110.302C333.932 110.215 333.268 109.995 332.673 109.665C332.294 109.457 331.608 108.6 331.263 108.532C331.547 108.589 331.854 108.596 332.143 108.543V108.539Z" fill="#A57E9A" stroke="#A57E9A" stroke-width="0.758169" stroke-linecap="round" stroke-linejoin="round"/>
<path d="M350.024 71.3813C348.852 70.4374 346.832 70.2971 346.047 71.5822C346.066 70.2402 346.294 69.0348 344.857 68.3638C343.985 67.9582 342.954 68.0226 342.04 68.3259C341.161 68.6177 340.327 69.1523 339.868 69.9521C339.201 71.1235 339.857 72.0409 340.092 73.1857C340.956 71.7831 342.177 70.5662 343.989 71.4571C345.463 72.1849 345.452 73.8112 345.873 75.1873C345.551 74.8992 345.168 74.6717 344.724 74.5656C343.284 74.1524 341.87 74.9522 341.529 76.1615C340.751 75.4337 340.228 74.3723 340.096 73.2161C338.61 75.2479 339.409 78.4247 341.479 79.9145C343.064 81.0555 345.85 81.3019 345.896 78.8379C346.987 79.634 348.572 79.6794 349.705 78.944C352.162 77.3481 352.226 73.1554 350.028 71.3775L350.024 71.3813Z" fill="#A57E9A" stroke="#A57E9A" stroke-width="0.758169" stroke-linecap="round" stroke-linejoin="round"/>
<path d="M353.492 83.1178C353.959 83.5196 354.421 84.7971 355.558 84.7061C356.317 84.6455 357.029 83.9631 356.953 83.2088C356.919 82.8903 356.76 82.5946 356.54 82.3596C355.316 81.048 354.539 82.4165 353.443 82.5984C352.238 82.7956 352.033 81.1844 352.765 80.3125C354.22 78.5763 356.745 78.2011 358.682 79.4482C358.982 79.6529 359.289 79.9562 359.546 80.214C361.366 82.1625 361.036 85.252 358.705 86.6433C357.272 87.4962 355.555 87.5834 354.088 86.8025C353.219 86.3779 351.4 83.6144 353.129 83.0192C353.257 82.9737 353.371 83.0192 353.489 83.1216L353.492 83.1178Z" fill="#A57E9A" stroke="#A57E9A" stroke-width="0.758169" stroke-linecap="round" stroke-linejoin="round"/>
<path d="M287.471 39.1554C285.007 39.978 282.445 37.4988 284.783 35.4479C287.729 32.8626 291.554 37.7945 287.471 39.1554Z" fill="#A57E9A" stroke="#A57E9A" stroke-width="0.758169" stroke-linecap="round" stroke-linejoin="round"/>
<path d="M326.574 59.4475C327.264 59.3906 327.969 59.3906 328.757 59.6446C330.531 60.1716 332.048 62.5825 331.343 64.4893C330.376 67.5182 326.145 68.0679 324.136 65.8085C322.972 64.5917 322.681 62.5674 323.477 61.0738C324.132 59.9062 325.38 59.5726 326.57 59.4475H326.574ZM326.566 59.4892C325.387 59.3413 324.921 60.8842 325.573 61.7106C325.835 62.0404 326.244 62.2338 326.752 62.1049C327.946 61.8054 327.863 59.7508 326.676 59.5044C326.638 59.4968 326.6 59.4892 326.566 59.4854V59.4892Z" fill="#A57E9A" stroke="#A57E9A" stroke-width="0.758169" stroke-linecap="round" stroke-linejoin="round"/>
<path d="M319.83 55.6757C317.009 52.1236 323.12 46.9302 326.051 51.8848C326.809 53.1699 327.067 55.7628 325.732 56.8281C324.398 57.8933 321.782 57.3323 320.622 56.4452C320.304 56.2026 320.038 55.941 319.826 55.6757H319.83Z" fill="#A57E9A" stroke="#A57E9A" stroke-width="0.758169" stroke-linecap="round" stroke-linejoin="round"/>
<path d="M244.164 43.8862C243.853 45.1864 242.963 46.3237 241.424 46.8506C237.758 48.094 234.801 44.0302 236.185 40.6791C237.102 38.4577 239.873 37.0702 242.041 38.5486C243.838 39.7769 244.612 42.0021 244.164 43.8824V43.8862Z" fill="#A57E9A" stroke="#A57E9A" stroke-width="0.758169" stroke-linecap="round" stroke-linejoin="round"/>
<path d="M316.566 21.9675C316.566 21.9675 316.57 21.9561 316.573 21.9523C316.71 21.6528 316.721 21.2965 316.573 21.0008C316.319 20.5004 315.641 20.273 315.137 20.5118C314.659 20.9401 314.849 21.6073 315.231 22.0054C312.953 21.2282 310.933 16.9711 313.564 15.4359C314.625 14.8179 315.906 14.6322 317.116 14.871C319.178 15.2501 321.763 17.191 321.331 19.5148C321.16 20.4322 319.951 21.7969 319.159 22.2215C318.905 22.3579 315.929 22.8583 316.217 22.4224C316.319 22.267 316.49 22.1267 316.573 21.9675H316.566Z" fill="#A57E9A" stroke="#A57E9A" stroke-width="0.758169" stroke-linecap="round" stroke-linejoin="round"/>
<path d="M345.361 61.8282C344.895 60.0958 343.784 59.8001 343.966 57.7417C344.133 55.8462 344.929 54.0494 346.68 53.113C350.441 51.1001 354.573 54.4474 355.411 58.1549C355.847 60.0844 355.384 62.0481 353.849 63.3635C351.957 64.9784 347.647 65.312 346.248 62.8631C348.807 63.2611 349.918 59.2997 347.348 58.6666C345.403 58.189 345.001 60.4938 345.357 61.832L345.361 61.8282Z" fill="#A57E9A" stroke="#A57E9A" stroke-width="0.758169" stroke-linecap="round" stroke-linejoin="round"/>
<path d="M198.223 30.7359C197.833 26.9754 203.348 23.7039 206.878 25.6334C210.805 27.6994 210.847 33.4653 207.223 35.9142C204.979 37.658 201.282 37.5481 199.596 35.194C198.61 33.9619 198.307 32.1158 198.219 30.7359H198.223ZM198.758 30.698C198.853 32.1954 200.032 33.6814 201.571 33.7041C203.015 33.7383 204.213 32.2977 204.516 31.0088C204.899 29.5001 203.223 28.632 201.904 28.488C200.433 28.2757 198.633 28.9732 198.758 30.698Z" fill="#A57E9A" stroke="#A57E9A" stroke-width="0.758169" stroke-linecap="round" stroke-linejoin="round"/>
<path d="M187.089 12.8126C186.854 13.62 186.328 14.3858 185.603 14.9165C183.609 16.3684 180.565 15.5951 179.857 13.5935C179.299 12.0203 180.171 9.76094 182.123 9.18473C184.205 8.56682 186.699 9.21126 187.162 11.2432C187.275 11.7435 187.245 12.2856 187.089 12.8126Z" fill="#A57E9A" stroke="#A57E9A" stroke-width="0.758169" stroke-linecap="round" stroke-linejoin="round"/>
<path d="M342.893 39.3485C342.658 40.1559 342.131 40.9217 341.407 41.4524C339.413 42.9043 336.369 42.131 335.66 40.1294C335.103 38.5562 335.975 36.2969 337.927 35.7206C340.008 35.1027 342.503 35.7472 342.965 37.7791C343.079 38.2795 343.049 38.8216 342.893 39.3485Z" fill="#A57E9A" stroke="#A57E9A" stroke-width="0.758169" stroke-linecap="round" stroke-linejoin="round"/>
<path d="M271.451 19.8144C271.777 19.0562 272.145 18.3094 272.554 17.574C271.845 18.8439 272.421 21.5354 272.429 22.9418C272.44 24.4809 272.315 25.9934 272.148 27.5249C271.747 31.1755 271.087 34.7996 270.177 38.3554C269.411 31.9754 268.847 25.8494 271.451 19.8144Z" fill="#A57E9A" stroke="#A57E9A" stroke-width="0.758169" stroke-linecap="round" stroke-linejoin="round"/>
</svg>
